# xmcd
#
# Track frame offsets:
#	150
#	15792
#	29565
#	42962
#	63682
#	80892
#	92692
#	103307
#	117517
#	140772
#	154185
#	174155
#	188557
#	203717
#	219900
#
# Disc length: 3115 seconds
#
# Revision: 1564360054
# Processed by: cddbd v1.5.2PL0 Copyright (c) Steve Scherf et al.
# Submitted via: EZCDAudioConverter 8.3.2.1
#
DISCID=ce0c290f
DTITLE=COUNTRY SHOW - THE COUNTRY SHOW VOL. 6
DYEAR=1983
DGENRE=Traditional Country
TTITLE0=RANKARNA - PETA EN PINNE I BRASAN
TTITLE1=HASSE ANDERSSON - SKOMAKAR ANTON
TTITLE2=ANN-LOUISE HANSON - I AINT GOT TIME TO SIT HERE BY THE TELEPHONE
TTITLE3=HASSE ANDERSSON - SEPTEMBER KVELD
TTITLE4=KIKKI DANIELSSON - COMMENT CA VA
TTITLE5=RANKARNA - ONLY ONE YOU
TTITLE6=TONE WATTUM - FALLING IN LOVE
TTITLE7=WENDEL ATKINS - I DONT WANNA HEARE IT ANYMORE
TTITLE8=HASSE ANDERSSON - ÄNGLAHUND
TTITLE9=SIR DOUGLAS QUINTET - MEET ME IN STOCKHOLM
TTITLE10=KIKKI DANIELSSON - ENSAMMA DAGAR
TTITLE11=ALF ROBERTSON - LILJOR
TTITLE12=COUNTRY ROAD - I DONT THINK SHES IN LOVE ANYMORE
TTITLE13=RANKARNA - MÅNGA MIL
TTITLE14=TANJA - YOU'VE GOT TO SING IT NICE AND LOUD FOR ME BABY
EXTD=
EXTT0=
EXTT1=
EXTT2=
EXTT3=
EXTT4=
EXTT5=
EXTT6=
EXTT7=
EXTT8=
EXTT9=
EXTT10=
EXTT11=
EXTT12=
EXTT13=
EXTT14=
PLAYORDER=
